<svg id="agua-icon" xmlns="http://www.w3.org/2000/svg" width="113.009" height="108.356" viewBox="0 0 113.009 108.356">
  <path id="Caminho_613" data-name="Caminho 613" d="M32.326,108.733a2.125,2.125,0,0,1-2.125-2.125V91.736a2.125,2.125,0,1,1,4.249,0v14.872A2.125,2.125,0,0,1,32.326,108.733Zm2.125,8.5v-2.125a2.125,2.125,0,1,0-4.249,0v2.125a2.125,2.125,0,1,0,4.249,0Zm-8.5-23.371V91.736a2.125,2.125,0,1,0-4.249,0v2.125a2.125,2.125,0,1,0,4.249,0Zm94.057-68.116V63.861a2.125,2.125,0,0,1-2.125,2.125H106.858a6.374,6.374,0,0,1-6.374-6.374v-1.87H49.323a8.5,8.5,0,0,0-8.5,8.5v8.5h1.955a6.374,6.374,0,0,1,0,12.748h-29.4a6.374,6.374,0,1,1,0-12.748H15.5v-8.5A33.994,33.994,0,0,1,49.493,32.246h8.371v-8.5H42.991a6.374,6.374,0,0,1,0-12.748h17a2.125,2.125,0,0,1,2.125,2.125h4.249A2.125,2.125,0,0,1,68.487,11h17a6.374,6.374,0,1,1,0,12.748H70.611v8.5h29.872V29.994a6.374,6.374,0,0,1,6.374-6.374h11.027A2.125,2.125,0,0,1,120.009,25.745ZM42.991,19.5H85.484a2.125,2.125,0,1,0,0-4.249H70.611a2.125,2.125,0,0,1-2.125,2.125h-8.5a2.125,2.125,0,0,1-2.125-2.125H42.991a2.125,2.125,0,1,0,0,4.249ZM62.113,32.246h4.249v-8.5H62.113ZM42.758,78.988H13.374a2.125,2.125,0,0,0,0,4.249H42.758a2.125,2.125,0,0,0,0-4.249Zm57.726-25.5v-17H49.493A29.745,29.745,0,0,0,19.748,66.24v8.5H36.554v-8.5A12.748,12.748,0,0,1,49.3,53.493ZM115.76,27.87h-8.9a2.125,2.125,0,0,0-2.125,2.125V59.612a2.125,2.125,0,0,0,2.125,2.125h8.9Z" transform="translate(-7 -11)" fill="#fff"/>
</svg>
