<svg xmlns="http://www.w3.org/2000/svg" width="61.638" height="73.72" viewBox="0 0 61.638 73.72">
  <g id="brigada-icon" transform="translate(-44.418 -18.6)">
    <path id="Caminho_1507" data-name="Caminho 1507" d="M56.9,35.969S61.231,38.6,69.469,39.79c8.153,1.1,10.531.934,10.531.934a22.341,22.341,0,0,0-11.126-5.775A26.378,26.378,0,0,0,56.9,35.969Z" transform="translate(-6.976 -2.421)" fill="#fff"/>
    <path id="Subtração_1" data-name="Subtração 1" d="M52.224,52.886H1.985c.182-1.328.431-2.587.613-3.506a6.583,6.583,0,0,0,.213-1.332.009.009,0,0,0-.008,0C2.011,48,1.359,46.892.864,44.74A44.769,44.769,0,0,1,0,37.258c.142-3.158.49-6.233.77-8.7A28.173,28.173,0,0,0,1.1,24.348C.785,21.7,3.8,15.78,6.72,11.12,9.687,6.393,13.619,1.3,15.712.568A11.237,11.237,0,0,1,19.4,0a21.688,21.688,0,0,1,6.9,1.288A11.71,11.71,0,0,1,29.9,3.031c.211.352.03.931-.161,1.544-.27.865-.549,1.759.246,2.107a14.868,14.868,0,0,0,2.406.6,28.3,28.3,0,0,1,7.19,2.2c3.245,1.549,5.68,6.085,7.292,9.088l0,0c.245.457.477.889.689,1.268,1.366,2.445,4.7,7.277,6.567,9.94l.057.082v.085l.524.523.5.5a15.9,15.9,0,0,1,3.557,5.255,16.15,16.15,0,0,1,.945,7.484c-.235,2.824-4.2,6.547-7.481,9.174ZM36.265,31.823h0a56.931,56.931,0,0,1-.509,9.425A16.945,16.945,0,0,0,35.49,46.7c.006.037.01.06.01.068.32-.416.572-.785.84-1.176a20.512,20.512,0,0,1,1.623-2.136c.68-.777,1.387-1.446,2.011-2.035,1-.942,1.714-1.621,1.557-2.041,0-.11-.283-.408-.711-.859a22.672,22.672,0,0,1-2.091-2.453A43.189,43.189,0,0,1,36.265,31.823Z" transform="translate(46.272 39.434)" fill="#fff"/>
    <path id="Caminho_1515" data-name="Caminho 1515" d="M65.058,55.633l2.378-3.907A14.55,14.55,0,0,0,72.7,48.754a40.813,40.813,0,0,1,7.3-4.586,5.936,5.936,0,0,1-2.378-3.907c-.255-2.463,2.633-6.03,1.529-11.805-1.019-5.69-6.03-9.767-13.928-6.285s-7.219,16.306-5.52,21.912c1.614,5.605,6.2,3.652,6.2,3.652s-.51,2.378-.764,3.907A21.929,21.929,0,0,0,65.058,55.633Z" transform="translate(-7.236 -0.344)" fill="#dcdcdc"/>
    <path id="Caminho_1516" data-name="Caminho 1516" d="M95.4,78.671l.934,2.038s4.162-3.907,6.115-6.285a14.653,14.653,0,0,1,6.37-4.416L107.375,67.8s-4.586,2.378-6.455,4.671C97.948,76.038,95.4,78.671,95.4,78.671Z" transform="translate(-12.779 -7.415)" fill="#9d9d9d"/>
    <path id="Caminho_1517" data-name="Caminho 1517" d="M99,84.671l1.359,1.868s3.992-3.737,5.945-6.115a14.654,14.654,0,0,1,6.37-4.416L111.23,73.8s-4.586,2.378-6.455,4.671A77.25,77.25,0,0,1,99,84.671Z" transform="translate(-13.321 -8.319)" fill="#9d9d9d"/>
    <path id="Caminho_1518" data-name="Caminho 1518" d="M90.969,80.268l.17,2.293s-7.219-.595-12.23-1.1C73.3,80.863,66,80.693,66,80.693l.255-2.293s6.37.17,12.23.595S90.969,80.268,90.969,80.268Z" transform="translate(-8.348 -9.013)" fill="#9d9d9d"/>
    <path id="Caminho_1519" data-name="Caminho 1519" d="M90.784,87.553l-.17,2.123s-7.134-.594-12.06-1.1c-5.52-.51-12.654-.679-12.654-.679l.085-2.293s6.37.17,12.23.595C84.16,86.7,90.784,87.553,90.784,87.553Z" transform="translate(-8.333 -10.098)" fill="#9d9d9d"/>
    <path id="Caminho_1520" data-name="Caminho 1520" d="M54.7,76.7l.255,2.378L61.409,80.1,61.324,77.8Z" transform="translate(-6.645 -8.756)" fill="#9d9d9d"/>
    <path id="Caminho_1521" data-name="Caminho 1521" d="M55.6,83.9l.255,2.378,5.605,1.189.085-2.548Z" transform="translate(-6.78 -9.842)" fill="#9d9d9d"/>
    <path id="Caminho_1523" data-name="Caminho 1523" d="M57.452,31.509c.51,1.953,7.813,1.019,13.758,2.633,6.964,1.868,8.493,3.4,9.087,1.784C82.845,28.961,78.769,18.6,69.511,18.6,60.934,18.6,55.923,24.97,57.452,31.509Z" transform="translate(-7.018 0)" fill="#9d9d9d"/>
    <path id="Caminho_1524" data-name="Caminho 1524" d="M79.866,36.679S63.56,22.327,57.53,24.365s-2.123,7.644.085,7.134C61.946,30.395,79.866,36.679,79.866,36.679Z" transform="translate(-6.587 -0.839)" fill="#ececec" opacity="0.75"/>
    <path id="Caminho_1525" data-name="Caminho 1525" d="M51.252,31.406c6.964-1.868,20.213,1.614,24.629,3.907,4.586,2.378,7.813,4.246,7.813,4.246l-4.671.679s-4.331-1.529-10.276-3.227a49.693,49.693,0,0,0-12.824-1.529S47.855,32.34,51.252,31.406Z" transform="translate(-5.999 -1.85)" fill="#fff"/>
  </g>
</svg>
