<svg xmlns="http://www.w3.org/2000/svg" width="53.309" height="70.073" viewBox="0 0 53.309 70.073">
  <g id="extintor-icon" transform="translate(-5.772 -0.039)">
    <path id="Caminho_632" data-name="Caminho 632" d="M44.475,1.86a6.051,6.051,0,0,0-5.5,3.55H34.318A6.509,6.509,0,0,0,23.626,2.769H7.3V7.912h9.414A31.107,31.107,0,0,0,5.772,19.687l5.374,2.192A25.211,25.211,0,0,1,22.781,11.211,6.478,6.478,0,0,0,25.537,13.5v2.075A12.9,12.9,0,0,0,15.129,28.224V70.112h25.8V28.224a12.9,12.9,0,0,0-10.205-12.61v-2.1a6.61,6.61,0,0,0,3.261-3.1h4.992a6.053,6.053,0,0,0,5.5,3.549l14.6,1.364V.039ZM37.826,28.3c0,.075-.02.142-.023.213V66.658H18.189V28.3a9.818,9.818,0,1,1,19.637,0ZM28.049,10.374a3,3,0,1,1,3-3A3,3,0,0,1,28.049,10.374Zm27.922,1.907L44.5,11.165v-.015a3.4,3.4,0,0,1,0-6.775V4.358L55.971,3.026Z" fill="#fff"/>
  </g>
</svg>
