<svg xmlns="http://www.w3.org/2000/svg" width="48.187" height="81.918" viewBox="0 0 48.187 81.918">
  <g id="gas-con" transform="translate(-106 -1)">
    <g id="Grupo_314" data-name="Grupo 314" transform="translate(106 1)">
      <path id="Caminho_619" data-name="Caminho 619" d="M207.606,44.212h1.606v4.819a1.606,1.606,0,0,0,3.212,0V44.212h3.212v4.819a1.606,1.606,0,0,0,3.212,0V44.212h1.606a1.606,1.606,0,0,0,0-3.212h-12.85a1.606,1.606,0,0,0,0,3.212Z" transform="translate(-189.938 -34.575)" fill="#fff"/>
      <path id="Caminho_620" data-name="Caminho 620" d="M212.189,207.94c0-5.269-8.2-15.242-9.135-16.362a1.607,1.607,0,0,0-2.466,0c-.935,1.12-9.135,11.093-9.135,16.362a10.368,10.368,0,0,0,20.735,0Zm-12.7,4.819c0-.71,1.079-2.551,2.336-4.281,1.257,1.731,2.336,3.572,2.336,4.281a2.336,2.336,0,0,1-4.673,0Zm7.871-.289c-.227-2.574-3.326-6.472-4.3-7.64a1.607,1.607,0,0,0-2.466,0c-.975,1.168-4.075,5.066-4.3,7.64a7.122,7.122,0,0,1-1.621-4.529c0-2.727,3.988-8.727,7.155-12.775,3.167,4.046,7.155,10.045,7.155,12.775A7.122,7.122,0,0,1,207.356,212.47Z" transform="translate(-177.728 -160.483)" fill="#fff"/>
      <path id="Caminho_621" data-name="Caminho 621" d="M147.762,13.85H144.55V4.212h2.409a1.606,1.606,0,0,0,0-3.212H113.228a1.606,1.606,0,1,0,0,3.212h2.409V13.85h-3.212A6.432,6.432,0,0,0,106,20.275V70.068a6.432,6.432,0,0,0,6.425,6.425h.352l.2.8a7.409,7.409,0,0,0,7.2,5.62h19.834a7.409,7.409,0,0,0,7.2-5.62l.2-.8h.352a6.432,6.432,0,0,0,6.425-6.425V20.275A6.432,6.432,0,0,0,147.762,13.85Zm-38.55,11.244h41.762V65.25H109.212ZM118.85,4.212h22.487V13.85H118.85Zm-6.425,12.85h35.337a3.216,3.216,0,0,1,3.212,3.212v1.606H109.212V20.275A3.216,3.216,0,0,1,112.425,17.062Zm31.667,59.456a4.2,4.2,0,0,1-4.082,3.187H120.177a4.2,4.2,0,0,1-4.082-3.187l-.006-.025H144.1Zm3.67-3.238H112.425a3.216,3.216,0,0,1-3.212-3.212V68.462h41.762v1.606A3.216,3.216,0,0,1,147.762,73.281Z" transform="translate(-106 -1)" fill="#fff"/>
    </g>
  </g>
</svg>
