<svg xmlns="http://www.w3.org/2000/svg" width="93" height="93" viewBox="0 0 93 93">
  <g id="hidrometro-icon" transform="translate(-0.5 -0.5)">
    <circle id="Elipse_3" data-name="Elipse 3" cx="45" cy="45" r="45" transform="translate(2 2)" fill="none" stroke="#fff" stroke-width="3"/>
    <path id="Caminho_614" data-name="Caminho 614" d="M69.838,37.919a31.6,31.6,0,0,1-9.352,22.566,3.192,3.192,0,0,1-4.532,0l-6.767-6.607a3.192,3.192,0,0,1,0-4.532,15.959,15.959,0,1,0-22.6,0,3.192,3.192,0,0,1,0,4.532l-6.767,6.767a3.192,3.192,0,0,1-4.532,0A31.6,31.6,0,0,1,6,37.919a31.919,31.919,0,0,1,63.837,0Z" transform="translate(8.766 8.767)" fill="none" stroke="#fff" stroke-width="3"/>
    <path id="Caminho_615" data-name="Caminho 615" d="M11.845,32.384a3.192,3.192,0,0,1-2.266-5.458l6.767-6.767a3.262,3.262,0,1,1,4.532,4.692l-6.767,6.767A3.192,3.192,0,0,1,11.845,32.384Z" transform="translate(14.541 37.794)" fill="#fff"/>
    <path id="Caminho_617" data-name="Caminho 617" d="M22.576,32.151a9.576,9.576,0,1,1,9.576-9.576A9.576,9.576,0,0,1,22.576,32.151Zm0-12.767a3.192,3.192,0,1,0,3.192,3.192A3.192,3.192,0,0,0,22.576,19.384Z" transform="translate(24.11 24.11)" fill="#fff"/>
    <path id="Caminho_618" data-name="Caminho 618" d="M22.937,24.88a3,3,0,0,1-1.756-.543l-9.576-6.384a3.192,3.192,0,1,1,3.511-5.3l9.576,6.384a3.192,3.192,0,0,1-1.756,5.841Z" transform="translate(17.365 21.806)" fill="#fff"/>
  </g>
</svg>
