<svg xmlns="http://www.w3.org/2000/svg" width="65" height="48.75" viewBox="0 0 65 48.75">
  <g id="mangueira-icon" transform="translate(-8 -40)">
    <path id="Caminho_1497" data-name="Caminho 1497" d="M67.922,53.2h3.047a3.032,3.032,0,0,1,.83.117A15.742,15.742,0,0,0,56.242,40H54.211A15.742,15.742,0,0,0,38.469,55.742V73.008A10.664,10.664,0,0,1,27.8,83.672H23.742A10.664,10.664,0,0,1,13.078,73.008V40H8V73.008A15.742,15.742,0,0,0,23.742,88.75H27.8A15.742,15.742,0,0,0,43.547,73.008V55.742A10.664,10.664,0,0,1,54.211,45.078h2.031a10.679,10.679,0,0,1,10.41,8.4A3.024,3.024,0,0,1,67.922,53.2Z" transform="translate(0 0)" fill="#fff"/>
    <path id="Caminho_1498" data-name="Caminho 1498" d="M244.063,143.478h-3.047A3.027,3.027,0,0,1,240,143.3v2.209h5.078V143.3A3.027,3.027,0,0,1,244.063,143.478Z" transform="translate(-173.094 -77.071)" fill="#fff"/>
    <rect id="Retângulo_46" data-name="Retângulo 46" width="7" height="11" rx="3.5" transform="translate(66 54)" fill="#fff"/>
    <path id="Caminho_1499" data-name="Caminho 1499" d="M242,163.047a2.031,2.031,0,0,0,4.063,0c0-1.4-2.031-3.047-2.031-3.047S242,161.645,242,163.047Z" transform="translate(-174.586 -89.531)" fill="#fff"/>
  </g>
</svg>
