<svg xmlns="http://www.w3.org/2000/svg" width="72.706" height="79.036" viewBox="0 0 72.706 79.036">
  <g id="vistoria-icon" transform="translate(-44.06 -23.497)">
    <path id="Caminho_622" data-name="Caminho 622" d="M387.234,446.73a4.8,4.8,0,0,1-4.775,4.777" transform="translate(-279.974 -350.474)" fill="none" stroke="#fff" stroke-linecap="round" stroke-linejoin="round" stroke-width="3"/>
    <line id="Linha_2" data-name="Linha 2" x1="52.147" transform="translate(50.337 101.033)" fill="none" stroke="#fff" stroke-linecap="round" stroke-linejoin="round" stroke-width="3"/>
    <path id="Caminho_623" data-name="Caminho 623" d="M50.337,451.508a4.8,4.8,0,0,1-4.777-4.777" transform="translate(0 -350.475)" fill="none" stroke="#fff" stroke-linecap="round" stroke-linejoin="round" stroke-width="3"/>
    <path id="Caminho_624" data-name="Caminho 624" d="M45.561,96.256V44.125L66.238,25h36.248" transform="translate(-0.001 0)" fill="none" stroke="#fff" stroke-linecap="round" stroke-linejoin="round" stroke-width="3"/>
    <path id="Caminho_625" data-name="Caminho 625" d="M382.459,25a4.793,4.793,0,0,1,4.775,4.775" transform="translate(-279.974 0)" fill="none" stroke="#fff" stroke-linecap="round" stroke-linejoin="round" stroke-width="3"/>
    <line id="Linha_3" data-name="Linha 3" y2="31.616" transform="translate(107.26 29.772)" fill="none" stroke="#fff" stroke-linecap="round" stroke-linejoin="round" stroke-width="3"/>
    <line id="Linha_4" data-name="Linha 4" y2="17.635" transform="translate(67.186 24.997)" fill="none" stroke="#fff" stroke-linecap="round" stroke-linejoin="round" stroke-width="3"/>
    <path id="Caminho_626" data-name="Caminho 626" d="M160.988,129.369a2.569,2.569,0,0,1-2.554,2.556" transform="translate(-93.802 -86.737)" fill="none" stroke="#fff" stroke-linecap="round" stroke-linejoin="round" stroke-width="3"/>
    <line id="Linha_5" data-name="Linha 5" x1="19.072" transform="translate(45.56 45.189)" fill="none" stroke="#fff" stroke-linecap="round" stroke-linejoin="round" stroke-width="3"/>
    <line id="Linha_6" data-name="Linha 6" x2="18.338" transform="translate(79.369 33.104)" fill="none" stroke="#fff" stroke-linecap="round" stroke-linejoin="round" stroke-width="3"/>
    <path id="Caminho_627" data-name="Caminho 627" d="M354.186,72.974a1.2,1.2,0,0,1,1.136,1.239" transform="translate(-256.478 -39.87)" fill="none" stroke="#fff" stroke-linecap="round" stroke-linejoin="round" stroke-width="3"/>
    <line id="Linha_7" data-name="Linha 7" y2="10.475" transform="translate(98.844 34.343)" fill="none" stroke="#fff" stroke-linecap="round" stroke-linejoin="round" stroke-width="3"/>
    <path id="Caminho_628" data-name="Caminho 628" d="M355.321,142.306a1.2,1.2,0,0,1-1.136,1.239" transform="translate(-256.478 -97.488)" fill="none" stroke="#fff" stroke-linecap="round" stroke-linejoin="round" stroke-width="3"/>
    <line id="Linha_8" data-name="Linha 8" x1="18.338" transform="translate(79.369 46.058)" fill="none" stroke="#fff" stroke-linecap="round" stroke-linejoin="round" stroke-width="3"/>
    <path id="Caminho_629" data-name="Caminho 629" d="M240.053,143.546a1.193,1.193,0,0,1-1.139-1.239" transform="translate(-160.684 -97.489)" fill="none" stroke="#fff" stroke-linecap="round" stroke-linejoin="round" stroke-width="3"/>
    <line id="Linha_9" data-name="Linha 9" y1="10.475" transform="translate(78.23 34.343)" fill="none" stroke="#fff" stroke-linecap="round" stroke-linejoin="round" stroke-width="3"/>
    <path id="Caminho_630" data-name="Caminho 630" d="M238.914,74.214a1.2,1.2,0,0,1,1.139-1.239" transform="translate(-160.684 -39.871)" fill="none" stroke="#fff" stroke-linecap="round" stroke-linejoin="round" stroke-width="3"/>
    <line id="Linha_10" data-name="Linha 10" x2="45.845" transform="translate(53.104 58.145)" fill="none" stroke="#fff" stroke-linecap="round" stroke-linejoin="round" stroke-width="3"/>
    <line id="Linha_11" data-name="Linha 11" x2="31.527" transform="translate(53.104 74.037)" fill="none" stroke="#fff" stroke-linecap="round" stroke-linejoin="round" stroke-width="3"/>
    <line id="Linha_12" data-name="Linha 12" x2="33.781" transform="translate(53.104 89.934)" fill="none" stroke="#fff" stroke-linecap="round" stroke-linejoin="round" stroke-width="3"/>
    <g id="Grupo_316" data-name="Grupo 316" transform="translate(92.419 67.395)">
      <path id="Caminho_631" data-name="Caminho 631" d="M345.116,287.036a11.1,11.1,0,1,1-5.522-9.608" transform="translate(-322.888 -275.923)" fill="none" stroke="#fff" stroke-linecap="round" stroke-linejoin="round" stroke-width="3"/>
      <g id="Grupo_315" data-name="Grupo 315" transform="translate(6.237 3.885)">
        <line id="Linha_13" data-name="Linha 13" x2="5.647" y2="5.176" transform="translate(0 6.122)" fill="none" stroke="#fff" stroke-linecap="round" stroke-linejoin="round" stroke-width="3"/>
        <line id="Linha_14" data-name="Linha 14" x1="10.344" y2="11.298" transform="translate(5.647)" fill="none" stroke="#fff" stroke-linecap="round" stroke-linejoin="round" stroke-width="3"/>
      </g>
    </g>
  </g>
</svg>
