<svg id="agua" xmlns="http://www.w3.org/2000/svg" width="114.922" height="110.19" viewBox="0 0 114.922 110.19">
  <path id="Caminho_613" data-name="Caminho 613" d="M96.168,110.387a2.161,2.161,0,0,0,2.161-2.161V93.1a2.161,2.161,0,1,0-4.321,0v15.124A2.161,2.161,0,0,0,96.168,110.387Zm-2.161,8.642v-2.161a2.161,2.161,0,0,1,4.321,0v2.161a2.161,2.161,0,1,1-4.321,0Zm8.642-23.767V93.1a2.161,2.161,0,1,1,4.321,0v2.161a2.161,2.161,0,0,1-4.321,0ZM7,25.995V64.756a2.161,2.161,0,0,0,2.161,2.161H20.374a6.482,6.482,0,0,0,6.482-6.482v-1.9H78.883a8.642,8.642,0,0,1,8.642,8.642v8.642H85.538a6.482,6.482,0,1,0,0,12.964h29.9a6.482,6.482,0,1,0,0-12.964H113.28V67.175a34.57,34.57,0,0,0-34.57-34.57H70.2V23.964H85.322a6.482,6.482,0,0,0,0-12.964H68.037a2.161,2.161,0,0,0-2.161,2.161H61.555A2.161,2.161,0,0,0,59.394,11H42.11a6.482,6.482,0,1,0,0,12.964H57.234v8.642H26.856v-2.29a6.482,6.482,0,0,0-6.482-6.482H9.161A2.161,2.161,0,0,0,7,25.995Zm78.322-6.352H42.11a2.161,2.161,0,1,1,0-4.321H57.234a2.161,2.161,0,0,0,2.161,2.161h8.642A2.161,2.161,0,0,0,70.2,15.321H85.322a2.161,2.161,0,0,1,0,4.321ZM65.876,32.606H61.555V23.964h4.321ZM85.559,80.139H115.44a2.161,2.161,0,0,1,0,4.321H85.559a2.161,2.161,0,0,1,0-4.321Zm-58.7-25.927V36.927H78.71a30.248,30.248,0,0,1,30.248,30.248v8.642H91.868V67.175A12.964,12.964,0,0,0,78.9,54.212ZM11.321,28.155h9.053a2.161,2.161,0,0,1,2.161,2.161V60.434A2.161,2.161,0,0,1,20.374,62.6H11.321Z" transform="translate(-7 -11)" fill="#393939"/>
</svg>
