<svg xmlns="http://www.w3.org/2000/svg" width="79.36" height="96.526" viewBox="0 0 79.36 96.526">
  <g id="brigada" transform="translate(-44.418 -16.6)">
    <path id="Caminho_1516" data-name="Caminho 1516" d="M95.4,81.444,96.573,84s5.223-4.9,7.675-7.888a18.392,18.392,0,0,1,7.995-5.543L110.43,67.8s-5.756,2.985-8.1,5.863C98.6,78.14,95.4,81.444,95.4,81.444Z" transform="translate(-3.033 3.245)" fill="#9d9d9d"/>
    <path id="Caminho_1517" data-name="Caminho 1517" d="M99,87.444l1.706,2.345s5.01-4.69,7.462-7.675a18.392,18.392,0,0,1,7.995-5.543L114.35,73.8s-5.756,2.985-8.1,5.863A96.958,96.958,0,0,1,99,87.444Z" transform="translate(-2.795 3.64)" fill="#9d9d9d"/>
    <path id="Caminho_1518" data-name="Caminho 1518" d="M97.339,80.745l.213,2.878s-9.061-.746-15.35-1.386c-7.035-.746-16.2-.959-16.2-.959l.32-2.878s7.995.213,15.35.746S97.339,80.745,97.339,80.745Z" transform="translate(-4.971 3.944)" fill="#9d9d9d"/>
    <path id="Caminho_1519" data-name="Caminho 1519" d="M97.132,88.052l-.213,2.665s-8.954-.746-15.136-1.386c-6.929-.64-15.883-.853-15.883-.853l.107-2.878s7.995.213,15.35.746C88.818,86.986,97.132,88.052,97.132,88.052Z" transform="translate(-4.978 4.418)" fill="#9d9d9d"/>
    <path id="Caminho_1520" data-name="Caminho 1520" d="M54.7,76.7l.32,2.985,8.1,1.279-.107-2.878Z" transform="translate(-5.717 3.831)" fill="#9d9d9d"/>
    <path id="Caminho_1521" data-name="Caminho 1521" d="M55.6,83.9l.32,2.985,7.035,1.492.107-3.2Z" transform="translate(-5.657 4.306)" fill="#9d9d9d"/>
    <path id="Caminho_1507" data-name="Caminho 1507" d="M56.9,36.3s5.436,3.3,15.776,4.8c10.233,1.386,13.218,1.173,13.218,1.173S80.031,36.3,71.93,35.022A33.107,33.107,0,0,0,56.9,36.3Z" transform="translate(-5.572 1.059)" fill="#fff"/>
    <path id="Subtração_1" data-name="Subtração 1" d="M65.547,66.377H2.491c.228-1.667.541-3.247.769-4.4A8.263,8.263,0,0,0,3.527,60.3a.012.012,0,0,0-.009-.005c-.993-.05-1.812-1.444-2.434-4.146A56.189,56.189,0,0,1,0,46.762C.178,42.8.615,38.939.966,35.837a35.36,35.36,0,0,0,.42-5.278c-.4-3.321,3.378-10.753,7.049-16.6C12.159,8.023,17.093,1.627,19.721.712A14.1,14.1,0,0,1,24.354,0,27.221,27.221,0,0,1,33.02,1.617a14.7,14.7,0,0,1,4.5,2.188c.265.442.038,1.169-.2,1.938-.339,1.086-.69,2.208.309,2.645a18.661,18.661,0,0,0,3.02.754,35.525,35.525,0,0,1,9.025,2.763c4.072,1.944,7.129,7.638,9.152,11.406l0,.006c.308.574.6,1.116.865,1.592,1.714,3.068,5.9,9.133,8.243,12.476l.072.1v.107l.657.657.622.622a19.961,19.961,0,0,1,4.464,6.6,20.269,20.269,0,0,1,1.186,9.393c-.3,3.544-5.269,8.218-9.389,11.514ZM45.516,39.941h0a71.455,71.455,0,0,1-.638,11.83,21.268,21.268,0,0,0-.332,6.844c.008.046.013.075.013.085.4-.522.718-.985,1.054-1.476a25.744,25.744,0,0,1,2.037-2.681c.854-.976,1.741-1.815,2.524-2.555,1.25-1.182,2.151-2.034,1.954-2.561,0-.139-.355-.512-.893-1.078a28.456,28.456,0,0,1-2.625-3.079A54.206,54.206,0,0,1,45.516,39.941Z" transform="translate(46.745 44.749)" fill="none" stroke="#393939" stroke-width="4"/>
    <path id="Caminho_1515" data-name="Caminho 1515" d="M66.7,64.5l2.985-4.9a18.262,18.262,0,0,0,6.609-3.731c3.091-2.771,9.167-5.756,9.167-5.756a7.451,7.451,0,0,1-2.985-4.9c-.32-3.091,3.3-7.568,1.919-14.817C83.115,23.246,76.826,18.13,66.913,22.5S57.852,42.966,59.984,50c2.025,7.035,7.781,4.584,7.781,4.584s-.64,2.985-.959,4.9A27.524,27.524,0,0,0,66.7,64.5Z" transform="translate(-5.458 0.151)" fill="#dcdcdc"/>
    <path id="Caminho_1523" data-name="Caminho 1523" d="M57.521,34.8c.64,2.452,9.807,1.279,17.268,3.3,8.741,2.345,10.659,4.264,11.406,2.238C89.393,31.6,84.276,18.6,72.658,18.6,61.892,18.6,55.6,26.595,57.521,34.8Z" transform="translate(-5.553 0)" fill="#fff" stroke="#393939" stroke-width="4"/>
    <path id="Caminho_1524" data-name="Caminho 1524" d="M86.384,39.872S65.918,21.857,58.349,24.415s-2.665,9.594.107,8.954C63.892,31.984,86.384,39.872,86.384,39.872Z" transform="translate(-5.742 0.367)" fill="#393939" opacity="0.75"/>
    <path id="Caminho_1525" data-name="Caminho 1525" d="M51.465,31.541c8.741-2.345,25.369,2.025,30.912,4.9,5.756,2.985,9.807,5.33,9.807,5.33l-5.863.853s-5.436-1.919-12.9-4.051a62.37,62.37,0,0,0-16.1-1.919S47.2,32.714,51.465,31.541Z" transform="translate(-5.999 0.809)" fill="#393939"/>
  </g>
</svg>
