<svg id="extintor" xmlns="http://www.w3.org/2000/svg" width="83.687" height="110.003" viewBox="0 0 83.687 110.003">
  <path id="Caminho_632" data-name="Caminho 632" d="M66.529,2.9A9.5,9.5,0,0,0,57.894,8.47H50.585A10.219,10.219,0,0,0,33.8,4.325H8.171V12.4H22.949A48.833,48.833,0,0,0,5.772,30.884l8.436,3.441A39.578,39.578,0,0,1,32.473,17.577,10.169,10.169,0,0,0,36.8,21.164v3.257A20.252,20.252,0,0,0,20.461,44.285v65.757h40.5V44.285a20.243,20.243,0,0,0-16.02-19.8v-3.3a10.377,10.377,0,0,0,5.119-4.86H57.9A9.5,9.5,0,0,0,66.532,21.9l22.927,2.142v-24ZM56.092,44.4c0,.117-.032.223-.037.335v59.88H25.265V44.4a15.413,15.413,0,1,1,30.826,0ZM40.744,16.264a4.714,4.714,0,1,1,4.713-4.713A4.716,4.716,0,0,1,40.744,16.264Zm43.833,2.993-18.01-1.751v-.023a5.344,5.344,0,0,1,0-10.635V6.82l18.01-2.091Z" transform="translate(-5.772 -0.039)" fill="#393939"/>
</svg>
