<svg id="gas" xmlns="http://www.w3.org/2000/svg" width="47.834" height="81.318" viewBox="0 0 47.834 81.318">
  <g id="Grupo_314" data-name="Grupo 314" transform="translate(0 0)">
    <path id="Caminho_619" data-name="Caminho 619" d="M207.595,44.189h1.594v4.783a1.594,1.594,0,0,0,3.189,0V44.189h3.189v4.783a1.594,1.594,0,1,0,3.189,0V44.189h1.594a1.594,1.594,0,0,0,0-3.189H207.595a1.594,1.594,0,0,0,0,3.189Z" transform="translate(-190.055 -34.622)" fill="#393939"/>
    <path id="Caminho_620" data-name="Caminho 620" d="M212.037,207.816c0-5.23-8.14-15.13-9.068-16.242a1.6,1.6,0,0,0-2.448,0c-.928,1.112-9.068,11.012-9.068,16.242a10.292,10.292,0,1,0,20.583,0ZM199.426,212.6c0-.7,1.071-2.532,2.319-4.25,1.248,1.718,2.319,3.546,2.319,4.25a2.319,2.319,0,1,1-4.639,0Zm7.813-.287c-.225-2.555-3.3-6.424-4.27-7.584a1.6,1.6,0,0,0-2.448,0c-.968,1.16-4.045,5.029-4.27,7.584a7.07,7.07,0,0,1-1.609-4.5c0-2.707,3.959-8.663,7.1-12.681,3.144,4.017,7.1,9.971,7.1,12.681A7.07,7.07,0,0,1,207.24,212.312Z" transform="translate(-177.829 -160.707)" fill="#393939"/>
    <path id="Caminho_621" data-name="Caminho 621" d="M147.456,13.756h-3.189V4.189h2.392a1.594,1.594,0,1,0,0-3.189H113.175a1.594,1.594,0,1,0,0,3.189h2.392v9.567h-3.189A6.385,6.385,0,0,0,106,20.134V69.562a6.385,6.385,0,0,0,6.378,6.378h.35l.2.8a7.354,7.354,0,0,0,7.145,5.579h19.689a7.355,7.355,0,0,0,7.145-5.579l.2-.8h.35a6.385,6.385,0,0,0,6.378-6.378V20.134A6.385,6.385,0,0,0,147.456,13.756ZM109.189,24.917h41.456V64.779H109.189Zm9.567-20.728h22.323v9.567H118.756Zm-6.378,12.756h35.078a3.193,3.193,0,0,1,3.189,3.189v1.594H109.189V20.134A3.193,3.193,0,0,1,112.378,16.945Zm31.435,59.021a4.17,4.17,0,0,1-4.052,3.164H120.073a4.17,4.17,0,0,1-4.052-3.164l-.006-.025h27.8Zm3.643-3.214H112.378a3.193,3.193,0,0,1-3.189-3.189V67.968h41.456v1.594A3.193,3.193,0,0,1,147.456,72.751Z" transform="translate(-106 -1)" fill="#393939"/>
  </g>
</svg>
