<svg xmlns="http://www.w3.org/2000/svg" width="109" height="110" viewBox="0 0 109 110">
  <g id="hidro" transform="translate(2.092 2.372)">
    <ellipse id="Elipse_3" data-name="Elipse 3" cx="52" cy="52.5" rx="52" ry="52.5" transform="translate(0.408 0.128)" fill="none" stroke="#393939" stroke-width="5"/>
    <path id="Caminho_614" data-name="Caminho 614" d="M80.378,43.188a36.816,36.816,0,0,1-10.9,26.292,3.719,3.719,0,0,1-5.281,0l-7.884-7.7a3.719,3.719,0,0,1,0-5.281,18.594,18.594,0,1,0-26.329,0,3.719,3.719,0,0,1,0,5.281L22.1,69.666a3.719,3.719,0,0,1-5.281,0A36.816,36.816,0,0,1,6,43.188a37.188,37.188,0,0,1,74.376,0Z" transform="translate(8.793 8.794)" fill="none" stroke="#393939" stroke-width="5"/>
    <path id="Caminho_615" data-name="Caminho 615" d="M12.375,34.553a3.719,3.719,0,0,1-2.64-6.359l7.884-7.884A3.8,3.8,0,1,1,22.9,25.777l-7.884,7.884A3.719,3.719,0,0,1,12.375,34.553Z" transform="translate(15.956 44.8)" fill="#393939"/>
    <path id="Caminho_617" data-name="Caminho 617" d="M24.156,35.313A11.156,11.156,0,1,1,35.313,24.156,11.156,11.156,0,0,1,24.156,35.313Zm0-14.875a3.719,3.719,0,1,0,3.719,3.719A3.719,3.719,0,0,0,24.156,20.438Z" transform="translate(27.826 27.826)" fill="#393939"/>
    <path id="Caminho_618" data-name="Caminho 618" d="M25.085,27.015a3.5,3.5,0,0,1-2.045-.632L11.884,18.945a3.719,3.719,0,1,1,4.091-6.173l11.156,7.438a3.719,3.719,0,0,1-2.045,6.805Z" transform="translate(19.459 24.968)" fill="#393939"/>
  </g>
</svg>
