<svg xmlns="http://www.w3.org/2000/svg" width="135.925" height="104.444" viewBox="0 0 135.925 104.444">
  <g id="mangueira" transform="translate(-6 -38)">
    <path id="Caminho_1497" data-name="Caminho 1497" d="M131.462,67.2h6.278a6.247,6.247,0,0,1,1.711.241A32.435,32.435,0,0,0,107.4,40h-4.185A32.435,32.435,0,0,0,70.777,72.435v35.574a21.972,21.972,0,0,1-21.972,21.972h-8.37a21.972,21.972,0,0,1-21.972-21.972V40H8v68.009a32.435,32.435,0,0,0,32.435,32.435h8.37A32.435,32.435,0,0,0,81.24,108.009V72.435a21.972,21.972,0,0,1,21.972-21.972H107.4a22,22,0,0,1,21.449,17.311A6.231,6.231,0,0,1,131.462,67.2Z" transform="translate(0 0)" fill="none" stroke="#393939" stroke-width="4"/>
    <path id="Caminho_1498" data-name="Caminho 1498" d="M248.37,143.666h-6.278A6.237,6.237,0,0,1,240,143.3v4.551h10.463V143.3A6.237,6.237,0,0,1,248.37,143.666Z" transform="translate(-110.63 -49.259)" fill="#393939"/>
    <rect id="Retângulo_46" data-name="Retângulo 46" width="14.423" height="22.664" rx="7.211" transform="translate(127.503 68.845)" fill="#393939"/>
    <path id="Caminho_1499" data-name="Caminho 1499" d="M242,166.278a4.185,4.185,0,0,0,8.37,0c0-2.888-4.185-6.278-4.185-6.278S242,163.39,242,166.278Z" transform="translate(-111.584 -57.223)" fill="#393939"/>
  </g>
</svg>
