<svg xmlns="http://www.w3.org/2000/svg" width="95.984" height="104" viewBox="0 0 95.984 104">
  <g id="vistoria" transform="translate(2.5 2.5)">
    <path id="Caminho_622" data-name="Caminho 622" d="M388.676,446.73a6.249,6.249,0,0,1-6.217,6.22" transform="translate(-308.342 -353.95)" fill="none" stroke="#393939" stroke-linecap="round" stroke-linejoin="round" stroke-width="5"/>
    <line id="Linha_2" data-name="Linha 2" x1="67.896" transform="translate(6.22 99)" fill="none" stroke="#393939" stroke-linecap="round" stroke-linejoin="round" stroke-width="5"/>
    <path id="Caminho_623" data-name="Caminho 623" d="M51.78,452.951a6.244,6.244,0,0,1-6.22-6.22" transform="translate(-45.56 -353.951)" fill="none" stroke="#393939" stroke-linecap="round" stroke-linejoin="round" stroke-width="5"/>
    <path id="Caminho_624" data-name="Caminho 624" d="M45.561,117.777V49.9L72.482,25h47.2" transform="translate(-45.561 -24.997)" fill="none" stroke="#393939" stroke-linecap="round" stroke-linejoin="round" stroke-width="5"/>
    <path id="Caminho_625" data-name="Caminho 625" d="M382.459,25a6.241,6.241,0,0,1,6.217,6.217" transform="translate(-308.342 -24.997)" fill="none" stroke="#393939" stroke-linecap="round" stroke-linejoin="round" stroke-width="5"/>
    <line id="Linha_3" data-name="Linha 3" y2="41.164" transform="translate(80.334 6.217)" fill="none" stroke="#393939" stroke-linecap="round" stroke-linejoin="round" stroke-width="5"/>
    <line id="Linha_4" data-name="Linha 4" y2="22.961" transform="translate(28.157)" fill="none" stroke="#393939" stroke-linecap="round" stroke-linejoin="round" stroke-width="5"/>
    <path id="Caminho_626" data-name="Caminho 626" d="M161.759,129.369a3.345,3.345,0,0,1-3.325,3.328" transform="translate(-133.602 -106.408)" fill="none" stroke="#393939" stroke-linecap="round" stroke-linejoin="round" stroke-width="5"/>
    <line id="Linha_5" data-name="Linha 5" x1="24.832" transform="translate(0 26.29)" fill="none" stroke="#393939" stroke-linecap="round" stroke-linejoin="round" stroke-width="5"/>
    <line id="Linha_6" data-name="Linha 6" x2="23.877" transform="translate(44.02 10.555)" fill="none" stroke="#393939" stroke-linecap="round" stroke-linejoin="round" stroke-width="5"/>
    <path id="Caminho_627" data-name="Caminho 627" d="M354.186,72.974a1.563,1.563,0,0,1,1.48,1.614" transform="translate(-286.289 -62.419)" fill="none" stroke="#393939" stroke-linecap="round" stroke-linejoin="round" stroke-width="5"/>
    <line id="Linha_7" data-name="Linha 7" y2="13.639" transform="translate(69.376 12.169)" fill="none" stroke="#393939" stroke-linecap="round" stroke-linejoin="round" stroke-width="5"/>
    <path id="Caminho_628" data-name="Caminho 628" d="M355.665,142.306a1.557,1.557,0,0,1-1.48,1.614" transform="translate(-286.289 -116.498)" fill="none" stroke="#393939" stroke-linecap="round" stroke-linejoin="round" stroke-width="5"/>
    <line id="Linha_8" data-name="Linha 8" x1="23.877" transform="translate(44.02 27.421)" fill="none" stroke="#393939" stroke-linecap="round" stroke-linejoin="round" stroke-width="5"/>
    <path id="Caminho_629" data-name="Caminho 629" d="M240.4,143.921a1.553,1.553,0,0,1-1.483-1.614" transform="translate(-196.377 -116.499)" fill="none" stroke="#393939" stroke-linecap="round" stroke-linejoin="round" stroke-width="5"/>
    <line id="Linha_9" data-name="Linha 9" y1="13.639" transform="translate(42.537 12.169)" fill="none" stroke="#393939" stroke-linecap="round" stroke-linejoin="round" stroke-width="5"/>
    <path id="Caminho_630" data-name="Caminho 630" d="M238.914,74.589a1.559,1.559,0,0,1,1.483-1.614" transform="translate(-196.377 -62.42)" fill="none" stroke="#393939" stroke-linecap="round" stroke-linejoin="round" stroke-width="5"/>
    <line id="Linha_10" data-name="Linha 10" x2="59.691" transform="translate(9.823 43.159)" fill="none" stroke="#393939" stroke-linecap="round" stroke-linejoin="round" stroke-width="5"/>
    <line id="Linha_11" data-name="Linha 11" x2="41.048" transform="translate(9.823 63.851)" fill="none" stroke="#393939" stroke-linecap="round" stroke-linejoin="round" stroke-width="5"/>
    <line id="Linha_12" data-name="Linha 12" x2="43.983" transform="translate(9.823 84.549)" fill="none" stroke="#393939" stroke-linecap="round" stroke-linejoin="round" stroke-width="5"/>
    <g id="Grupo_316" data-name="Grupo 316" transform="translate(61.011 55.203)">
      <path id="Caminho_631" data-name="Caminho 631" d="M351.829,290.392a14.455,14.455,0,1,1-7.19-12.51" transform="translate(-322.888 -275.923)" fill="none" stroke="#393939" stroke-linecap="round" stroke-linejoin="round" stroke-width="5"/>
      <g id="Grupo_315" data-name="Grupo 315" transform="translate(8.121 5.058)">
        <line id="Linha_13" data-name="Linha 13" x2="7.352" y2="6.739" transform="translate(0 7.971)" fill="none" stroke="#393939" stroke-linecap="round" stroke-linejoin="round" stroke-width="5"/>
        <line id="Linha_14" data-name="Linha 14" x1="13.468" y2="14.71" transform="translate(7.352)" fill="none" stroke="#393939" stroke-linecap="round" stroke-linejoin="round" stroke-width="5"/>
      </g>
    </g>
  </g>
</svg>
